<?xml version="1.0" encoding="utf-8" standalone="no"?>
<!DOCTYPE svg PUBLIC "-//W3C//DTD SVG 1.1//EN" "http://www.w3.org/Graphics/SVG/1.1/DTD/svg11.dtd">

<svg style="stroke-linejoin:round; stroke:black; stroke-width:0.5pt; text-anchor:middle; fill:none" xmlns="http://www.w3.org/2000/svg" height="594mm" width="420mm" version="1.1" xmlns:xlink="http://www.w3.org/1999/xlink" font-family="Helvetica, Arial, FreeSans, Sans, sans, sans-serif" viewBox="0 0 420 594">

<g>

<rect width="35.0" stroke="none" y="17.0" x="17.5" fill="black" height="35.0" />

<rect width="35.0" stroke="none" y="87.0" x="17.5" fill="black" height="35.0" />

<rect width="35.0" stroke="none" y="157.0" x="17.5" fill="black" height="35.0" />

<rect width="35.0" stroke="none" y="227.0" x="17.5" fill="black" height="35.0" />

<rect width="35.0" stroke="none" y="297.0" x="17.5" fill="black" height="35.0" />

<rect width="35.0" stroke="none" y="367.0" x="17.5" fill="black" height="35.0" />

<rect width="35.0" stroke="none" y="437.0" x="17.5" fill="black" height="35.0" />

<rect width="35.0" stroke="none" y="507.0" x="17.5" fill="black" height="35.0" />

<rect width="35.0" stroke="none" y="52.0" x="52.5" fill="black" height="35.0" />

<rect width="35.0" stroke="none" y="122.0" x="52.5" fill="black" height="35.0" />

<rect width="35.0" stroke="none" y="192.0" x="52.5" fill="black" height="35.0" />

<rect width="35.0" stroke="none" y="262.0" x="52.5" fill="black" height="35.0" />

<rect width="35.0" stroke="none" y="332.0" x="52.5" fill="black" height="35.0" />

<rect width="35.0" stroke="none" y="402.0" x="52.5" fill="black" height="35.0" />

<rect width="35.0" stroke="none" y="472.0" x="52.5" fill="black" height="35.0" />

<rect width="35.0" stroke="none" y="542.0" x="52.5" fill="black" height="35.0" />

<rect width="35.0" stroke="none" y="17.0" x="87.5" fill="black" height="35.0" />

<rect width="35.0" stroke="none" y="87.0" x="87.5" fill="black" height="35.0" />

<rect width="35.0" stroke="none" y="157.0" x="87.5" fill="black" height="35.0" />

<rect width="35.0" stroke="none" y="227.0" x="87.5" fill="black" height="35.0" />

<rect width="35.0" stroke="none" y="297.0" x="87.5" fill="black" height="35.0" />

<rect width="35.0" stroke="none" y="367.0" x="87.5" fill="black" height="35.0" />

<rect width="35.0" stroke="none" y="437.0" x="87.5" fill="black" height="35.0" />

<rect width="35.0" stroke="none" y="507.0" x="87.5" fill="black" height="35.0" />

<rect width="35.0" stroke="none" y="52.0" x="122.5" fill="black" height="35.0" />

<rect width="35.0" stroke="none" y="122.0" x="122.5" fill="black" height="35.0" />

<rect width="35.0" stroke="none" y="192.0" x="122.5" fill="black" height="35.0" />

<rect width="35.0" stroke="none" y="262.0" x="122.5" fill="black" height="35.0" />

<rect width="35.0" stroke="none" y="332.0" x="122.5" fill="black" height="35.0" />

<rect width="35.0" stroke="none" y="402.0" x="122.5" fill="black" height="35.0" />

<rect width="35.0" stroke="none" y="472.0" x="122.5" fill="black" height="35.0" />

<rect width="35.0" stroke="none" y="542.0" x="122.5" fill="black" height="35.0" />

<rect width="35.0" stroke="none" y="17.0" x="157.5" fill="black" height="35.0" />

<rect width="35.0" stroke="none" y="87.0" x="157.5" fill="black" height="35.0" />

<rect width="35.0" stroke="none" y="157.0" x="157.5" fill="black" height="35.0" />

<rect width="35.0" stroke="none" y="227.0" x="157.5" fill="black" height="35.0" />

<rect width="35.0" stroke="none" y="297.0" x="157.5" fill="black" height="35.0" />

<rect width="35.0" stroke="none" y="367.0" x="157.5" fill="black" height="35.0" />

<rect width="35.0" stroke="none" y="437.0" x="157.5" fill="black" height="35.0" />

<rect width="35.0" stroke="none" y="507.0" x="157.5" fill="black" height="35.0" />

<rect width="35.0" stroke="none" y="52.0" x="192.5" fill="black" height="35.0" />

<rect width="35.0" stroke="none" y="122.0" x="192.5" fill="black" height="35.0" />

<rect width="35.0" stroke="none" y="192.0" x="192.5" fill="black" height="35.0" />

<rect width="35.0" stroke="none" y="262.0" x="192.5" fill="black" height="35.0" />

<rect width="35.0" stroke="none" y="332.0" x="192.5" fill="black" height="35.0" />

<rect width="35.0" stroke="none" y="402.0" x="192.5" fill="black" height="35.0" />

<rect width="35.0" stroke="none" y="472.0" x="192.5" fill="black" height="35.0" />

<rect width="35.0" stroke="none" y="542.0" x="192.5" fill="black" height="35.0" />

<rect width="35.0" stroke="none" y="17.0" x="227.5" fill="black" height="35.0" />

<rect width="35.0" stroke="none" y="87.0" x="227.5" fill="black" height="35.0" />

<rect width="35.0" stroke="none" y="157.0" x="227.5" fill="black" height="35.0" />

<rect width="35.0" stroke="none" y="227.0" x="227.5" fill="black" height="35.0" />

<rect width="35.0" stroke="none" y="297.0" x="227.5" fill="black" height="35.0" />

<rect width="35.0" stroke="none" y="367.0" x="227.5" fill="black" height="35.0" />

<rect width="35.0" stroke="none" y="437.0" x="227.5" fill="black" height="35.0" />

<rect width="35.0" stroke="none" y="507.0" x="227.5" fill="black" height="35.0" />

<rect width="35.0" stroke="none" y="52.0" x="262.5" fill="black" height="35.0" />

<rect width="35.0" stroke="none" y="122.0" x="262.5" fill="black" height="35.0" />

<rect width="35.0" stroke="none" y="192.0" x="262.5" fill="black" height="35.0" />

<rect width="35.0" stroke="none" y="262.0" x="262.5" fill="black" height="35.0" />

<rect width="35.0" stroke="none" y="332.0" x="262.5" fill="black" height="35.0" />

<rect width="35.0" stroke="none" y="402.0" x="262.5" fill="black" height="35.0" />

<rect width="35.0" stroke="none" y="472.0" x="262.5" fill="black" height="35.0" />

<rect width="35.0" stroke="none" y="542.0" x="262.5" fill="black" height="35.0" />

<rect width="35.0" stroke="none" y="17.0" x="297.5" fill="black" height="35.0" />

<rect width="35.0" stroke="none" y="87.0" x="297.5" fill="black" height="35.0" />

<rect width="35.0" stroke="none" y="157.0" x="297.5" fill="black" height="35.0" />

<rect width="35.0" stroke="none" y="227.0" x="297.5" fill="black" height="35.0" />

<rect width="35.0" stroke="none" y="297.0" x="297.5" fill="black" height="35.0" />

<rect width="35.0" stroke="none" y="367.0" x="297.5" fill="black" height="35.0" />

<rect width="35.0" stroke="none" y="437.0" x="297.5" fill="black" height="35.0" />

<rect width="35.0" stroke="none" y="507.0" x="297.5" fill="black" height="35.0" />

<rect width="35.0" stroke="none" y="52.0" x="332.5" fill="black" height="35.0" />

<rect width="35.0" stroke="none" y="122.0" x="332.5" fill="black" height="35.0" />

<rect width="35.0" stroke="none" y="192.0" x="332.5" fill="black" height="35.0" />

<rect width="35.0" stroke="none" y="262.0" x="332.5" fill="black" height="35.0" />

<rect width="35.0" stroke="none" y="332.0" x="332.5" fill="black" height="35.0" />

<rect width="35.0" stroke="none" y="402.0" x="332.5" fill="black" height="35.0" />

<rect width="35.0" stroke="none" y="472.0" x="332.5" fill="black" height="35.0" />

<rect width="35.0" stroke="none" y="542.0" x="332.5" fill="black" height="35.0" />

<rect width="35.0" stroke="none" y="17.0" x="367.5" fill="black" height="35.0" />

<rect width="35.0" stroke="none" y="87.0" x="367.5" fill="black" height="35.0" />

<rect width="35.0" stroke="none" y="157.0" x="367.5" fill="black" height="35.0" />

<rect width="35.0" stroke="none" y="227.0" x="367.5" fill="black" height="35.0" />

<rect width="35.0" stroke="none" y="297.0" x="367.5" fill="black" height="35.0" />

<rect width="35.0" stroke="none" y="367.0" x="367.5" fill="black" height="35.0" />

<rect width="35.0" stroke="none" y="437.0" x="367.5" fill="black" height="35.0" />

<rect width="35.0" stroke="none" y="507.0" x="367.5" fill="black" height="35.0" />

</g>

</svg>

