<?xml version="1.0" encoding="utf-8" standalone="no"?>
<!DOCTYPE svg PUBLIC "-//W3C//DTD SVG 1.1//EN" "http://www.w3.org/Graphics/SVG/1.1/DTD/svg11.dtd">

<svg style="stroke-linejoin:round; stroke:black; stroke-width:0.5pt; text-anchor:middle; fill:none" xmlns="http://www.w3.org/2000/svg" height="594mm" width="420mm" version="1.1" xmlns:xlink="http://www.w3.org/1999/xlink" font-family="Helvetica, Arial, FreeSans, Sans, sans, sans-serif" viewBox="0 0 420 594">

<g>

<rect width="55.0" stroke="none" y="22.0" x="17.5" fill="black" height="55.0" />

<rect width="55.0" stroke="none" y="132.0" x="17.5" fill="black" height="55.0" />

<rect width="55.0" stroke="none" y="242.0" x="17.5" fill="black" height="55.0" />

<rect width="55.0" stroke="none" y="352.0" x="17.5" fill="black" height="55.0" />

<rect width="55.0" stroke="none" y="462.0" x="17.5" fill="black" height="55.0" />

<rect width="55.0" stroke="none" y="77.0" x="72.5" fill="black" height="55.0" />

<rect width="55.0" stroke="none" y="187.0" x="72.5" fill="black" height="55.0" />

<rect width="55.0" stroke="none" y="297.0" x="72.5" fill="black" height="55.0" />

<rect width="55.0" stroke="none" y="407.0" x="72.5" fill="black" height="55.0" />

<rect width="55.0" stroke="none" y="517.0" x="72.5" fill="black" height="55.0" />

<rect width="55.0" stroke="none" y="22.0" x="127.5" fill="black" height="55.0" />

<rect width="55.0" stroke="none" y="132.0" x="127.5" fill="black" height="55.0" />

<rect width="55.0" stroke="none" y="242.0" x="127.5" fill="black" height="55.0" />

<rect width="55.0" stroke="none" y="352.0" x="127.5" fill="black" height="55.0" />

<rect width="55.0" stroke="none" y="462.0" x="127.5" fill="black" height="55.0" />

<rect width="55.0" stroke="none" y="77.0" x="182.5" fill="black" height="55.0" />

<rect width="55.0" stroke="none" y="187.0" x="182.5" fill="black" height="55.0" />

<rect width="55.0" stroke="none" y="297.0" x="182.5" fill="black" height="55.0" />

<rect width="55.0" stroke="none" y="407.0" x="182.5" fill="black" height="55.0" />

<rect width="55.0" stroke="none" y="517.0" x="182.5" fill="black" height="55.0" />

<rect width="55.0" stroke="none" y="22.0" x="237.5" fill="black" height="55.0" />

<rect width="55.0" stroke="none" y="132.0" x="237.5" fill="black" height="55.0" />

<rect width="55.0" stroke="none" y="242.0" x="237.5" fill="black" height="55.0" />

<rect width="55.0" stroke="none" y="352.0" x="237.5" fill="black" height="55.0" />

<rect width="55.0" stroke="none" y="462.0" x="237.5" fill="black" height="55.0" />

<rect width="55.0" stroke="none" y="77.0" x="292.5" fill="black" height="55.0" />

<rect width="55.0" stroke="none" y="187.0" x="292.5" fill="black" height="55.0" />

<rect width="55.0" stroke="none" y="297.0" x="292.5" fill="black" height="55.0" />

<rect width="55.0" stroke="none" y="407.0" x="292.5" fill="black" height="55.0" />

<rect width="55.0" stroke="none" y="517.0" x="292.5" fill="black" height="55.0" />

<rect width="55.0" stroke="none" y="22.0" x="347.5" fill="black" height="55.0" />

<rect width="55.0" stroke="none" y="132.0" x="347.5" fill="black" height="55.0" />

<rect width="55.0" stroke="none" y="242.0" x="347.5" fill="black" height="55.0" />

<rect width="55.0" stroke="none" y="352.0" x="347.5" fill="black" height="55.0" />

<rect width="55.0" stroke="none" y="462.0" x="347.5" fill="black" height="55.0" />

</g>

</svg>

