<?xml version="1.0" encoding="utf-8" standalone="no"?>
<!DOCTYPE svg PUBLIC "-//W3C//DTD SVG 1.1//EN" "http://www.w3.org/Graphics/SVG/1.1/DTD/svg11.dtd">

<svg style="stroke-linejoin:round; stroke:black; stroke-width:0.5pt; text-anchor:middle; fill:none" xmlns="http://www.w3.org/2000/svg" height="297mm" width="210mm" version="1.1" xmlns:xlink="http://www.w3.org/1999/xlink" font-family="Helvetica, Arial, FreeSans, Sans, sans, sans-serif" viewBox="0 0 210 297">

<g>

<rect width="27.0" stroke="none" y="40.5" x="37.5" fill="black" height="27.0" />

<rect width="27.0" stroke="none" y="94.5" x="37.5" fill="black" height="27.0" />

<rect width="27.0" stroke="none" y="148.5" x="37.5" fill="black" height="27.0" />

<rect width="27.0" stroke="none" y="202.5" x="37.5" fill="black" height="27.0" />

<rect width="27.0" stroke="none" y="67.5" x="64.5" fill="black" height="27.0" />

<rect width="27.0" stroke="none" y="121.5" x="64.5" fill="black" height="27.0" />

<rect width="27.0" stroke="none" y="175.5" x="64.5" fill="black" height="27.0" />

<rect width="27.0" stroke="none" y="229.5" x="64.5" fill="black" height="27.0" />

<rect width="27.0" stroke="none" y="40.5" x="91.5" fill="black" height="27.0" />

<rect width="27.0" stroke="none" y="94.5" x="91.5" fill="black" height="27.0" />

<rect width="27.0" stroke="none" y="148.5" x="91.5" fill="black" height="27.0" />

<rect width="27.0" stroke="none" y="202.5" x="91.5" fill="black" height="27.0" />

<rect width="27.0" stroke="none" y="67.5" x="118.5" fill="black" height="27.0" />

<rect width="27.0" stroke="none" y="121.5" x="118.5" fill="black" height="27.0" />

<rect width="27.0" stroke="none" y="175.5" x="118.5" fill="black" height="27.0" />

<rect width="27.0" stroke="none" y="229.5" x="118.5" fill="black" height="27.0" />

<rect width="27.0" stroke="none" y="40.5" x="145.5" fill="black" height="27.0" />

<rect width="27.0" stroke="none" y="94.5" x="145.5" fill="black" height="27.0" />

<rect width="27.0" stroke="none" y="148.5" x="145.5" fill="black" height="27.0" />

<rect width="27.0" stroke="none" y="202.5" x="145.5" fill="black" height="27.0" />

</g>

</svg>

