<?xml version="1.0" encoding="utf-8" standalone="no"?>
<!DOCTYPE svg PUBLIC "-//W3C//DTD SVG 1.1//EN" "http://www.w3.org/Graphics/SVG/1.1/DTD/svg11.dtd">

<svg style="stroke-linejoin:round; stroke:black; stroke-width:0.5pt; text-anchor:middle; fill:none" xmlns="http://www.w3.org/2000/svg" height="297mm" width="210mm" version="1.1" xmlns:xlink="http://www.w3.org/1999/xlink" font-family="Helvetica, Arial, FreeSans, Sans, sans, sans-serif" viewBox="0 0 210 297">

<g>

<rect width="25.0" stroke="none" y="23.5" x="17.5" fill="black" height="25.0" />

<rect width="25.0" stroke="none" y="73.5" x="17.5" fill="black" height="25.0" />

<rect width="25.0" stroke="none" y="123.5" x="17.5" fill="black" height="25.0" />

<rect width="25.0" stroke="none" y="173.5" x="17.5" fill="black" height="25.0" />

<rect width="25.0" stroke="none" y="223.5" x="17.5" fill="black" height="25.0" />

<rect width="25.0" stroke="none" y="48.5" x="42.5" fill="black" height="25.0" />

<rect width="25.0" stroke="none" y="98.5" x="42.5" fill="black" height="25.0" />

<rect width="25.0" stroke="none" y="148.5" x="42.5" fill="black" height="25.0" />

<rect width="25.0" stroke="none" y="198.5" x="42.5" fill="black" height="25.0" />

<rect width="25.0" stroke="none" y="248.5" x="42.5" fill="black" height="25.0" />

<rect width="25.0" stroke="none" y="23.5" x="67.5" fill="black" height="25.0" />

<rect width="25.0" stroke="none" y="73.5" x="67.5" fill="black" height="25.0" />

<rect width="25.0" stroke="none" y="123.5" x="67.5" fill="black" height="25.0" />

<rect width="25.0" stroke="none" y="173.5" x="67.5" fill="black" height="25.0" />

<rect width="25.0" stroke="none" y="223.5" x="67.5" fill="black" height="25.0" />

<rect width="25.0" stroke="none" y="48.5" x="92.5" fill="black" height="25.0" />

<rect width="25.0" stroke="none" y="98.5" x="92.5" fill="black" height="25.0" />

<rect width="25.0" stroke="none" y="148.5" x="92.5" fill="black" height="25.0" />

<rect width="25.0" stroke="none" y="198.5" x="92.5" fill="black" height="25.0" />

<rect width="25.0" stroke="none" y="248.5" x="92.5" fill="black" height="25.0" />

<rect width="25.0" stroke="none" y="23.5" x="117.5" fill="black" height="25.0" />

<rect width="25.0" stroke="none" y="73.5" x="117.5" fill="black" height="25.0" />

<rect width="25.0" stroke="none" y="123.5" x="117.5" fill="black" height="25.0" />

<rect width="25.0" stroke="none" y="173.5" x="117.5" fill="black" height="25.0" />

<rect width="25.0" stroke="none" y="223.5" x="117.5" fill="black" height="25.0" />

<rect width="25.0" stroke="none" y="48.5" x="142.5" fill="black" height="25.0" />

<rect width="25.0" stroke="none" y="98.5" x="142.5" fill="black" height="25.0" />

<rect width="25.0" stroke="none" y="148.5" x="142.5" fill="black" height="25.0" />

<rect width="25.0" stroke="none" y="198.5" x="142.5" fill="black" height="25.0" />

<rect width="25.0" stroke="none" y="248.5" x="142.5" fill="black" height="25.0" />

<rect width="25.0" stroke="none" y="23.5" x="167.5" fill="black" height="25.0" />

<rect width="25.0" stroke="none" y="73.5" x="167.5" fill="black" height="25.0" />

<rect width="25.0" stroke="none" y="123.5" x="167.5" fill="black" height="25.0" />

<rect width="25.0" stroke="none" y="173.5" x="167.5" fill="black" height="25.0" />

<rect width="25.0" stroke="none" y="223.5" x="167.5" fill="black" height="25.0" />

</g>

</svg>

